<svg fill="none" height="153" viewBox="0 0 98 153" width="98" xmlns="http://www.w3.org/2000/svg"><path d="m89.84 99.55h-30.73v48.76h30.73z" fill="#b2b2b2"/><path d="m59.23 99.55h-30.73v48.76h30.73z" fill="#d1d1d1"/><path d="m43.13 40.42-1.31 26.21-6.16 19.22h11.09l5.76-16.56 1.8-18.82z" fill="#f7ebe7"/><path d="m42.82 132.03 2.23 10.39-7.49.89-2.13-10.23z" fill="#fcc9a7"/><path d="m45.5 141.48c-.19-.56-.79-.76-1.2-.4-.8.71-2.24 1.58-4.37 1.37-2.21-.22-3.04-1.52-3.36-2.46-.17-.49-.64-.74-1.06-.53l-13.41 6.74c-.81.41-1.45 1.17-1.77 2.12-.3.89.3 1.85 1.14 1.83l23.17-.64c.91-.02 1.61-.92 1.53-1.96l-.38-5.1c-.01-.08-.02-.17-.05-.25z" fill="#1f252a"/><path d="m42.69 81.79h-17.39s-10.59-.59-11.22 8.1 15.53 33.55 18.06 46.83l14.54-1.2-10.47-36.11 26.04.15c1.93.01 3.85-.27 5.67-.9 5.07-1.76 12.81-4.28 8.59-18.24z" fill="#092330"/><path d="m56.11 132.07 3.54 12.42-7.49.89-3.44-12.26z" fill="#fcc9a7"/><path d="m60.1 143.55c-.19-.56-.79-.76-1.2-.4-.8.71-2.24 1.58-4.37 1.37-2.21-.22-3.04-1.52-3.36-2.46-.17-.49-.64-.74-1.06-.53l-13.41 6.74c-.81.41-1.45 1.17-1.77 2.12-.3.89.3 1.85 1.14 1.83l23.57-.64c.91-.02 1.61-.92 1.53-1.96l-.79-5.1c-.01-.08-.02-.17-.05-.25z" fill="#1f252a"/><path d="m63.47 30.12c.39.38 17.84 4.83 17.84 4.83l-3.73 9.91-19.08-1.44z" fill="#f7ebe7"/><path d="m56.27 32.51s-11.37 4.15-13.14 7.91c.61 5.31 2.48 10.42 5.56 14.79 3.78 5.36 8.45 14.57 7.59 26.58h32.87s-1.77-33.79-11.5-46.76z" fill="#f7ebe7"/><path d="m60 37.87c3.23-.66 5.31-3.81 4.65-7.04l-1.93-9.45-11.69 2.39 1.93 9.45c.66 3.23 3.81 5.31 7.04 4.65z" fill="#fcc9a7"/><path d="m63.52 24.68s-1.23 7.66-7.19 8.12c-5.22.4-4.72-7.15-4.72-7.15z" fill="#f4be9a"/><path d="m56.8 28.6 1.03-.24c5.17-1.2 8.39-6.36 7.19-11.52l-1.36-5.89c-1.2-5.17-6.36-8.39-11.52-7.19l-1.03.24c-5.17 1.2-8.39 6.36-7.19 11.52l1.36 5.89c1.2 5.17 6.36 8.39 11.52 7.19z" fill="#fcc9a7"/><path d="m61.78 19.29c-.24.41-.47 1.03-.55 1.97-.09 1.19-.69 2.32-1.69 2.98-2.87 1.9-5.06-2.91-9.3-2.06 0 0-1.66.25-1.99 2.1-.33 1.84-2.6401-1.38-3.1501-3.58s-.7699 10.89 9.6701 9.78c0 0 5.27-.17 8.82-5.54.39-.59.62-1.28.64-1.99.03-1.05-.12-2.64-1.12-3.78-.35-.42-1.05-.36-1.33.12z" fill="#1c2226"/><path d="m61.79 16.32s-4.51-1.49-3.75-8.08c0 0-11.2 10.6-19.5 2.82 0 0 3.71-.99 5.24-3.53 2.79-4.63 10.81-11.01 17.23-3.63 0 0 7.81-1.21 5.57 10.82z" fill="#1c2226"/><path d="m61.79 16.32c.43 1.84 2.27 2.99 4.11 2.57 1.85-.43 2.9899-2.27 2.5699-4.11-.43-1.84-2.2699-2.99-4.1099-2.57-1.85.43-3 2.27-2.57 4.11z" fill="#fcc9a7"/><path d="m56.09 37.5 4.83.09-3.38 7-3.65-6.71z" fill="#0c2c40"/><path d="m65.06 30.43-6.22 7.26 4.05 4.65 7.45-10.24s-1.91-3.07-5.28-1.67z" fill="#fff7f3"/><path d="m56.09 37.5-3.58 4.04-2.52-6.3s.66-2.83 2.72-2.29z" fill="#fff7f3"/><path d="m57.4099 42.33s-4.6699 12.18-3.5099 29.46l4.6 4.2 5.37-5.17-5.79-29.28z" fill="#0c2c40"/><path d="m66.14 71.25-10 3.29-.66 5.87 13.26-3.96z" fill="#fcc9a7"/><path d="m57.63 78.42c0 3.43-2.78 6.22-6.22 6.22-3.43 0-6.22-2.78-6.22-6.22 0-3.43 2.78-6.22 6.22-6.22 3.43 0 6.22 2.78 6.22 6.22z" fill="#fcc9a7"/><path d="m56.27 81.79h-17.38s-10.59-.59-11.22 8.1 16.72 35.15 19.25 48.42l14.54-1.2-11.66-37.71 26.04.15c1.93.01 3.85-.27 5.67-.9 5.07-1.76 12.81-4.28 8.59-18.24z" fill="#0c2c40"/><path d="m3.84 51.06h30.05c.99 0 1.84.69 2.05 1.66l5.66 26.54c.28 1.3-.72 2.53-2.05 2.53h-30.55c-1 0-1.85998-.71-2.04998-1.69l-5.16001-26.54c-.26-1.3.72999-2.5 2.04999-2.5z" fill="#b2b2b2"/><path d="m2.10999 51.06h30.04001c.99 0 1.84.69 2.05 1.66l5.66 26.54c.28 1.3-.71 2.53-2.05 2.53h-30.54001c-1 0-1.85999-.71-2.04999-1.69l-5.1599993-26.54c-.2599997-1.3.7299873-2.5 2.0499893-2.5z" fill="#d1d1d1"/><path d="m40.78 79.52h20.53c.63 0 1.13.51 1.13 1.13 0 .63-.51 1.13-1.13 1.13h-20.93z" fill="#b2b2b2"/><path d="m20.71 65.73c0 1.81-1.46 3.27-3.27 3.27s-3.27-1.47-3.27-3.27c0-1.81 1.47-3.27 3.27-3.27 1.81 0 3.27 1.46 3.27 3.27z" fill="#fff"/><path d="m74.14 44.39 10.98 17.73-26.28 9.38 3.6 7.78s22.47-2.52 33.33-10.89c1-.77 1.5-2.02 1.33-3.27-.51-4-2.69-13.71-11.98-27.51-1.89-2.81-5.65-3.66-8.58-1.96-3.05 1.76-4.12 5.66-2.4 8.74z" fill="#f7ebe7"/><g stroke="#eaddd8" stroke-linecap="round" stroke-linejoin="round" stroke-miterlimit="10" stroke-width=".7599"><path d="m65.83 69 19.29-6.88-9.65-15.59"/><path d="m52.77 63.13-4.75-12.54"/><path d="m66.14 78.75s14.76-1.85 22.2-6.11"/></g></svg>