<svg fill="none" height="197" viewBox="0 0 104 197" width="104" xmlns="http://www.w3.org/2000/svg"><path d="m29.79 180.05-3.95 9.49-6.44-3.42 3.93-9.31z" fill="#fcc9a7"/><path d="m28.01 188.98c0-.57-.49-.94-.98-.73-.96.41-2.54.76-4.43-.09-1.96-.88-2.32-2.33-2.33-3.28 0-.5-.36-.88-.81-.81l-14.36999 2.07c-.87.13-1.68999.63-2.26999 1.41-.55.73-.29 1.79.48 2.03l21.44998 6.52c.84.26 1.76-.35 2.01-1.33l1.21-4.8c.02-.08.03-.16.03-.24z" fill="#1f252a"/><path d="m88.02 157.03 9 4.96-4.09 6.03-8.83-4.92z" fill="#fcc9a7"/><path d="m96.7 159.77c-.57-.06-.99.39-.84.89.3.99.48 2.61-.57 4.39-1.09 1.85-2.57 2.06-3.52 1.95-.5-.05-.91.26-.9.71l.49 14.51c.03.88.44 1.75 1.15 2.41.66.62 1.75.49 2.07-.26l8.81-20.61c.35-.81-.16-1.79-1.1-2.14l-4.64-1.73c-.08-.03-.16-.05-.24-.06z" fill="#1f252a"/><path d="m34.55 88.37 3.47 22.26 17.54 31.53 30.2 26.26 7.04-12.45-23.95-22.34-14.05-44.88z" fill="#092330"/><path d="m63.05 87.1s3.49 6.6-1.93 17.14l-16.83 32.12-12.83 48.68-12.74-4.45 9.15-49.23 16.22-38.42-9.54-4.57z" fill="#0c2c40"/><path d="m26.36 24.47c2.22 2.43 5.99 2.6 8.41.39 2.43-2.22 2.6-5.99.39-8.42-2.22-2.43-5.98-2.6-8.42-.39-2.43 2.23-2.6 5.99-.38 8.42z" fill="#fcc9a7"/><path d="m21.6 27.53 5.18-6.24 4.13 4.15-4.86 5.95z" fill="#fcc9a7"/><path d="m33.29 12.92-4.75 6.36c-.62.83-.6 1.98.05 2.78l3.85 4.75c.9 1.11 2.58 1.12 3.49.03l5.37-6.39c.74-.88.7-2.18-.09-3.02l-4.47-4.72c-.96-1.01-2.61-.92-3.45.21z" fill="#1c2226"/><path d="m38.2 35.34-18.83 9.45 10.34-15.95-6.82-5.9-21.55999 29.54c-1.959995 2.54-1.199994 6.24 1.61001 7.79 1.43.79 3.14999.87 4.64999.21l27.91999-11.09z" fill="#f7ece7"/><path d="m31.46 44.41s3.33 26.11 3.09 43.96c0 0 9.99 4.4 31.17-2.03l-5.24-48.55-10.2-3.43-12.08.98z" fill="#f7ece7"/><path d="m41.62 32.8.26 1.7c.02.12-.02.25-.11.34l-2.61 2.77c-.24.25-.66.11-.7-.23l-.27-2.04c-.02-.13.03-.26.13-.35l2.61-2.43c.25-.22.65-.09.69.24z" fill="#fcf3f0"/><path d="m45.11 37.19c3.1-.25 5.41-2.98 5.16-6.08l-.75-9.08-11.24.92 2.32 12.55c.37 1.6 1.4 1.94 4.51 1.69z" fill="#fcc9a7"/><path d="m49.9 25.21s-2.42 6.88-7.33 6.03c-4.51-.78-4.29-8.29-4.29-8.29z" fill="#f4be9a"/><path d="m43.35 28.74 1-.11c4.98-.54 8.59-5.02 8.05-10l-.61-5.68c-.54-4.97998-5.02-8.59-10-8.05l-1 .11c-4.98.54-8.59 5.02-8.05 10l.61 5.68c.54 4.99 5.02 8.59 10 8.05z" fill="#fcc9a7"/><path d="m43.35 28.74 1-.11c4.98-.54 8.59-5.02 8.05-10l-.61-5.68c-.54-4.97998-5.02-8.59-10-8.05l-1 .11c-4.98.54-8.59 5.02-8.05 10l.61 5.68c.54 4.99 5.02 8.59 10 8.05z" fill="#fcc9a7"/><path d="m52.2 16.83c-.68-.07-3.53 2.09-4.27 1.15-1.02-1.3-1.95-3.67-.63-6.13.22-.41.28-.89.14-1.34-.26-.80997-.96-1.74998-2.89-1.06998-3.09 1.08998-10.04 4.58998-12.05-.42001-2.54-6.31 17.44-4.54999 17.44-4.54999l4.55 6.57998-1.95 9.38z" fill="#1c2226"/><path d="m49.42 17.78c.19 1.78 1.79 3.07 3.57 2.87 1.78-.19 3.07-1.79 2.87-3.57-.19-1.78-1.79-3.07-3.57-2.87s-3.06 1.79-2.87 3.57z" fill="#fcc9a7"/><path d="m44.09 39.12 2.55 39.31-4.75 4.46-2.82-4.32 2.82-40.23z" fill="#0c2c40"/><path d="m40.29 36.41.39-.54-.1-.47h5.62l.44 1.47-3.74 3.3z" fill="#0c2c40"/><path d="m49.91 30.58-5.32 3.62c-.6.41-.68 1.27-.16 1.78l4.18 4.11c.47.46 1.24.44 1.68-.06l4.21-4.73c.41-.46.39-1.17-.05-1.6l-3.08-3.01c-.39-.37-1-.42-1.46-.11z" fill="#fcf3f0"/><path d="m27.37 32.45-7.96-4.8" stroke="#eaddd8" stroke-linecap="round" stroke-linejoin="round" stroke-miterlimit="10" stroke-width=".7599"/><path d="m41.87 70.15-2.79 29.83c-.11 1.12.66 2.14 1.77 2.36l34.21 6.54c1.26.24 2.45-.64 2.59-1.91l3.13-28.35c.12-1.1-.6-2.12-1.68-2.38l-34.55-8.01c-1.29-.31-2.55.6-2.68 1.92z" fill="#afafaf"/><path d="m44.3 70.68-2.79 29.83c-.1 1.12.66 2.14 1.77 2.36l34.21 6.54c1.26.24 2.45-.64 2.59-1.91l3.13-28.35c.12-1.1-.6-2.12-1.68-2.38l-34.55-8.02c-1.3-.3-2.56.61-2.68 1.93z" fill="#d1d1d1"/><path d="m57.21 98.13c-2.75-2.52-7.03-2.33-9.55.42s-2.33 7.03.42 9.55 7.03 2.33 9.55-.42c2.52-2.76 2.33-7.03-.42-9.55z" fill="#fcc9a7"/><path d="m62.28 94.19-5.22 7.58-5.08-4.28 4.88-7.21z" fill="#fcc9a7"/><path d="m60.49 37.79s7.65.77 9.87 13.28l8.8 18.28c.24.8.4 1.62.48 2.44l-18.51 26.59-8.35-4.95 14.97-24-9.09-14.39z" fill="#f7ece7"/><path d="m55.5 89.84 8.43 4.52" stroke="#eaddd8" stroke-linecap="round" stroke-linejoin="round" stroke-miterlimit="10" stroke-width=".7599"/><path d="m63.11 62.09-5.39-9.38" stroke="#eaddd8" stroke-linecap="round" stroke-linejoin="round" stroke-miterlimit="10" stroke-width=".7599"/><path d="m34.56 11.25c-3.82-1.72998-3.02-6.18999-2.15-7.59999 0 0 .17 2.51001 1.88 1.93001 0 0-.23-3.74001 4.78-4.71001 0 0-1.85 3.36 4.74 2.72 8.09-.79 8.56 4.33 8.11 10.68999l-2.48-1.78-1.92-4.42998h-6.55z" fill="#1c2226"/></svg>