<svg fill="none" height="190" viewBox="0 0 88 190" width="88" xmlns="http://www.w3.org/2000/svg"><g fill="#fcc9a7"><path d="m28.67 84.48c2.59-1.56 5.96-.73 7.52 1.87 1.56 2.59.73 5.96-1.87 7.52-2.59 1.56-5.96.73-7.52-1.87-1.56-2.58-.72-5.95 1.87-7.52z"/><path d="m34.88 84.87c-.18-.14-9.8-11.44-9.8-11.44l-3.9299 4.76 8.6799 10.99z"/><path d="m26.7701 172.97-2.4501 11.19-7.74-1.16 2.5-11.04z"/><path d="m61.47 171.97.09 11.46-7.7899.58-.0201-11.32z"/></g><path d="m25.3 182.34c-.16-.47-.73-.67-1.14-.37-.8.58-2.21 1.26-4.25 1.02-2.12-.25-2.8799-1.37-3.1399-2.17-.14-.42-.59-.64-1-.48l-13.13004 5.26c-.8.32-1.44002.94-1.770023 1.73-.32.74.220033 1.57 1.030033 1.57l22.31003.16c.88.01 1.5799-.72 1.5399-1.6l-.19-4.31c0-.07-.0199-.14-.0399-.21z" fill="#0c0c0c"/><path d="m52.98 182.34c.16-.47.74-.67 1.14-.37.8.58 2.21 1.26 4.25 1.02 2.12-.25 2.87-1.37 3.14-2.17.14-.42.59-.64 1-.48l13.13 5.26c.8.32 1.44.94 1.77 1.73.32.74-.22 1.57-1.03 1.57l-22.31.16c-.88.01-1.58-.72-1.54-1.6l.19-4.31c0-.07.02-.14.04-.21z" fill="#0c0c0c"/><path d="m52.88 28.3-6.93.6-11.02 6.21v44.16h29.4101v-44.16z" fill="#54585a"/><path d="m50.98 32.75h-1.99c-2.06 0-3.73-1.67-3.73-3.73v-7.48h9.44v7.48c.01 2.06-1.66 3.73-3.72 3.73z" fill="#fcc9a7"/><path d="m45.26 25.35s1.47 2.95 4.81 2.95 4.63-3.01 4.63-3.01z" fill="#f4be9a"/><path d="m50.09 26.57h-.31c-4.81 0-8.77-3.8-8.96-8.61l-.17-4.79c-.2-5.08999 3.87-9.31999 8.96-9.31999h.65c3.85 0 9.16 4.23 8.96 9.31999l-.17 4.79c-.19 4.81-4.15 8.61-8.96 8.61z" fill="#fcc9a7"/><path d="m43.57 16.8c.11 1.62-1.1099 3.02-2.7299 3.13s-3.0201-1.11-3.1301-2.73 1.11-3.02 2.73-3.13c1.62-.1 3.02 1.12 3.13 2.73z" fill="#fcc9a7"/><path d="m62.15 16.8c.11 1.62-1.11 3.02-2.73 3.13s-3.02-1.11-3.13-2.73 1.11-3.02 2.73-3.13c1.62-.1 3.02 1.12 3.13 2.73z" fill="#fcc9a7"/><path d="m34.93 79.06-18.29 97.23 10.5101-.1 26.7399-96.94z" fill="#0c0c0c"/><path d="m64.3401 79.27-1.1501 97.12h-11.11l-4.4299-96.51z" fill="#0c0c0c"/><path d="m34.93 35.11s-24.5599 14.82-30.52994 25.1c-1.17 2.01.34998 4.61 2.40998 5.68 2.28 1.19 5.09006.38 6.40006-1.83l22.7199-13.18c.01 0-1-11.32-1-15.77z" fill="#54585a"/><path d="m40.14 7.73001.69 7.35999h1.11l.14-3.86s.58-1.47999 3.17-4.65999c0 0 1.69 4.31999 12.16 3.47999l.61 4.88 1.08-.12.57-5.23999c.38-1.77.51-3.42.19-5.2-.65-3.600001-3.58-5.59-12.04-3.05-.7.21.73.07 0 0-2.42-.27-8.8-.3-7.68 6.41z" fill="#2e2a33"/><path d="m52.6 78.57-2.38 25.46c-.09.96.56 1.83 1.51 2.01l29.2 5.58c1.07.21 2.0901-.55 2.2101-1.63l2.6699-24.2c.1-.94-.51-1.81-1.44-2.03l-29.49-6.84c-1.1-.26-2.17.52-2.28 1.65z" fill="#afafaf"/><path d="m54.22 79.02-2.3799 25.46c-.09.96.5599 1.83 1.5099 2.01l29.2 5.58c1.07.2 2.0901-.55 2.2101-1.63l2.6699-24.2c.1-.94-.51-1.81-1.44-2.03l-29.49-6.84c-1.09-.26-2.17.52-2.28 1.65z" fill="#d1d1d1"/><path d="m69.42 105.01c2.9.86 4.56 3.91 3.7 6.81s-3.91 4.56-6.81 3.71c-2.9-.86-4.56-3.91-3.71-6.81.87-2.91 3.91-4.57 6.82-3.71z" fill="#fcc9a7"/><path d="m73.33 109.85c-.02-.23-.96-15.49-.96-15.49l-5.19.94.69 13.01z" fill="#fcc9a7"/><path d="m64.3401 35.11s7.8599 5.63 8.3599 13.65l2.46 18.75c.14 1.1.2 2.2.16 3.31l-.95 28.52h-10.79l-.2-30.87z" fill="#54585a"/><path d="m46.7801 28.3c-.84.61-4.8901 2.89-4.8901 2.89s.11 5.7 8.69 5.24c7.55-.4 7.5-5.03 7.5-5.03l-5.21-3.1z" fill="#fcc9a7"/><path d="m16.5 56.51 14.68 23.46-6.96 6.59-19.77997-23.09z" fill="#54585a"/><path d="m63.37 78.96v-10.5l-2.44-19.15" stroke="#424647" stroke-linecap="round" stroke-linejoin="round" stroke-miterlimit="10" stroke-width=".7693"/></svg>