<svg fill="none" height="124" viewBox="0 0 47 124" width="47" xmlns="http://www.w3.org/2000/svg" xmlns:xlink="http://www.w3.org/1999/xlink"><linearGradient id="a" gradientUnits="userSpaceOnUse" x1="1.4018" x2="41.2061" y1="120.621" y2="120.621"><stop offset="0" stop-color="#4d4d4d"/><stop offset="1"/></linearGradient><linearGradient id="b" gradientUnits="userSpaceOnUse" x1="1.4018" x2="41.2061" y1="120.621" y2="120.621"><stop offset="0"/><stop offset="1"/></linearGradient><path d="m33.89 123.36c2.42.03 5.18-.07 6.73-1.73.36-.39.6399-.87.5799-1.37-.12-1.08-1.5899-1.54-2.7899-1.72-7.01-1.04-14.18-.64-21.27-.22-4.43.26-8.91001.52-13.13001 1.73-2.2.63-3.9499864 2.27-1.16999 2.99 2.69.7 6.80996.03 9.64.06 7.13.08 14.27.17 21.41.26z" fill="url(#a)"/><path d="m33.89 123.36c2.42.03 5.18-.07 6.73-1.73.36-.39.6399-.87.5799-1.37-.12-1.08-1.5899-1.54-2.7899-1.72-7.01-1.04-14.18-.64-21.27-.22-4.43.26-8.91001.52-13.13001 1.73-2.2.63-3.9499864 2.27-1.16999 2.99 2.69.7 6.80996.03 9.64.06 7.13.08 14.27.17 21.41.26z" fill="url(#b)"/><path d="m12.39 118.44c.59 0 1.1901.01 1.7801.01.1 0 .2099 0 .2899-.07.07-.07.09-.17.11-.27.08-.62.16-1.25.25-1.87-.01.08-1.99-.27-2.23-.07-.47.36-.21 1.75-.2 2.27z" fill="#f0e5d4"/><path d="m24.98 118.43c.56.01 1.1201.01 1.6901 0 .18 0 .38-.01.51-.14s.1399-.34.1399-.52c0-.5 0-1 0-1.5 0-.05.0001-.11-.0299-.16-.04-.07-.1301-.08-.2101-.09-.45-.05-1.79-.2-2.09.21-.13.17.07 2.21-.01 2.2z" fill="#f0e5d4"/><path d="m26.32 31.9c1.81-2.22 3.48.23 4.13 2.37 2.62 8.63 3.45 17.89 4.26 27.05.13 1.47.26 2.93.39 4.4.47 5.28.9301 10.57 1.4001 15.85.03.31-5.2101 1.64-5.6601 1.78-2.74.81-5.58.86-8.37.67-3.49-.24-6.9599-.85-10.4699-.81-1.49.02-3.01006.15-4.46006-.27.6-3.08.66005-6.25.80005-9.39.32-7.58 1.05998-15.14 1.79001-22.69.41-4.24.66-8.57 1.18-12.77.29-2.3 1.22-6.32 3.21-7.34 2.12-1.08 3.1299 1.74 4.8399 2.46 1.95.83 4.3501.96 6.1501-.49.34-.26.5799-.55.8099-.82z" fill="#333"/><path d="m9.55994 8.26997c.11-.41.14999-.84998.11999-1.26998s-.19999-.90999-.61999-.98999c-.41-.08-.75002.30998-.95002.66998-.94 1.65-1.17996 3.59002-1.39996 5.47002.65.2 1.33.31 2 .3 0-.79.19-1.57.56-2.27.4-.74002 1.00994-1.45.94994-2.29-.11-.01-.21996-.02003-.33996-.03003-.11.13-.21.27-.32.41z" fill="#e8dbce"/><path d="m22.63 35.97c-.75-2.6-6.55-3.68-8.73-4.72-2.36-1.13-4.49002-2.75-6.21002-4.72-.38-.44-.75001-.91-.95001-1.46-.54-1.49 2.34002-12.84 2.09002-12.92l-2.48999-.74c-1.18 3.32-2.39004 6.64-3.54004 9.97-.89 2.57-2.429999 5.25-1.939999 8.07.319999 1.78 2.240009 2.98 3.510009 4.27 1.41 1.44 4.68998 4.71 6.48003 6.54l5.3499 5.41c1.19 2.66 3.9401-4.44 4.6601-5.35.83-1.08 2.19-2.88 1.77-4.35z" fill="#333"/><path d="m12.8101 92.14c.36-7.43-.4001-15.02-.3301-22.49-.24-2.59.15-5.23 1.13-7.67.06-.15.13-.31.25-.42.38-.36 1.02-.17 1.51.02 4.77 1.83 10.41 1.4 14.76-1.19.86 1.22 1.11 2.72 1.32 4.16.34 2.34.72 4.67.81 7.02v.01c.02.5.03 1.01.02 1.51-.06 2.93-.67 5.81-1.14 8.69-.31 1.88-.58 3.78-.61 5.68-.02 1.56-.2599 2.13-.4699 4.34-.37 3.84-.61 8.03-1 11.87-.42 4.11-.8301 8.23-1.1701 12.35-.01.16-.03.33-.04.49-.22.06-3.62.79-3.62-.04-.27-8-.55-16-.82-24-.11-3.37-.24-6.78-1.15-9.99-.38.04-.75.07-1.13.11-2.07 10.58-2.86 21.12-4.93 31.7-.18.93-.4 1.94-1.06 2.54s-3.18.49-3.38-.44c.58-8.07.6501-16.16 1.0501-24.25z" fill="#363f4c"/><path d="m24.54 117.64c1.21-.1 2.44-.05 3.63.15.92.69 1.94 1.26 3.01 1.69.31.13.64.25.87.49s.32.65.11.91c-.19.22-.5201.25-.8101.25-2.24.02-4.4799-.17-6.6799-.57-.13-.02-.27-.05-.37-.15-.08-.08-.11-.18-.14-.29-.23-.82-.09-1.75.38-2.48z" fill="#736357"/><path d="m15.21 117.7c-1.22-.02-2.43.1-3.62.37-.88.74-1.85998 1.37-2.89998 1.87-.3.14-.62002.28-.83002.54s-.27998.67-.04998.92c.2.21.53.22.82.2 2.23998-.11 4.45998-.44 6.63998-.97.13-.03.27-.07.36-.17.07-.08.1-.19.12-.29.17-.85-.03-1.77-.54-2.47z" fill="#736357"/><path d="m21.5601 30.69c1.01-.01 1.9398-.59 2.6398-1.32 2.61-2.7 2.5301-6.94 2.2801-10.69-.03-.4-.0601-.82-.2901-1.15-.35-.51-1.0299-.64-1.6399-.71-2.61 0-5.18.12-7.81.25-.22.01-.46.03-.63.16-.19.15-.2501.39-.2901.62-.18 1.08.1701 2.21.1501 3.31-.02 1.13.0299 2.27.2299 3.38.38 2.17 1.3801 4.19 3.2601 5.42.63.42 1.3501.73 2.1001.73z" fill="#f0e5d4"/><path d="m32.49 64.37c.07-.01.1001-.04.0601-.11-.27-.41-.7-1.15-1.14-2.03-.33-4.34-.85-8.69-1.74-12.97-1.11-5.27-3.4901-10.16-4.9101-15.35-.42-1.52-1.12-1.53-3.07-1.45-.78-.04-1.1099.06-1.1699.07-1.26-.07-.83.15-1.86-.16-1.14-.35-2.3301.55-2.3301 1.5 0 1.01-.0199 2.02-.0499 3.04-1.99 8.25-3.1901 16.63-3.5601 25.05v.03c-.11.43-.22.86-.34 1.3-.25.65-.5199 1.39-.5499 1.97-.02.06-.03.11-.05.17-.21.74.2799 1.38 1.0899 1.63 6.23 1.93 12.9 1.62 18.87-.79.08-.03.16-.07.22-.11.05-.02.1-.04.16-.06.09-.06.1901-.12.2801-.18.21-.18.34-.42.38-.67.05-.28-.0501-.63-.2901-.88z" fill="#1a1a1a"/><g fill="#666"><path d="m19.24 5.92999c-.72 0-1.4301 0-2.1501-.09-.3-.04-.3299.39002-.0499.45002.7.16 1.4.32999 2.11.42999.52.07.59-.79001.09-.79001z"/><path d="m14.92.730013c-.09.299997-.0901.619987-.1001.919987-.01.33-.08.70002.01 1.02002.04.16.28.27997.39.09997.16-.28.19-.60998.26-.91998.07-.34.1701-.69001.1501-1.04001-.02-.37-.61-.429987-.71-.079987z"/><path d="m18.13 2.20002c-.34.19-.6301.44999-.9301.70999-.26.23-.5399.44-.6999.75-.08.14.08.32001.23.29001.3-.06.55-.24003.8-.40003.34-.22.71-.41999.99-.70999.28-.28.02-.85998-.39-.63998z"/></g><path d="m37.95 37.38c-.84-.97-8.67-8.12-10.98-4.24-1.07 1.81 1.22 3.31 2.39 4.49 1.81 1.82 3.63 3.64 5.44 5.46 1.88 1.89 3.77 3.78 5.16 5.87 1.71 2.56 2.66 5.4 2.8 8.38.02.4.0301.81.3001 1.14.28.33.8999.54 1.5699.4 1.1-.24 1.4801-1.12 1.5501-1.79.78-7.36-3.2102-13.87-8.2301-19.71z" fill="#333"/><path d="m43.2901 58.96c-.09.51-.43 1.01-.25 1.5.1.28.3699.5.4099.79.03.2-.0599.39-.0399.59.02.25.2099.46.4299.58s.48.15.73.15c.26.01.5301-.01.7401-.15.2-.13.3199-.34.4099-.56.19-.48.2-1.02.12-1.53s-.2499-1-.4199-1.49c-.05-.13-.1001-.27-.2101-.36-.09-.07-.21-.09-.33-.11-.36-.05-.74-.04-1.1.01-.46.08-.4199.16-.4899.58z" fill="#f0e5d4"/><path d="m11.06 4.37999c.21-.46.44-.97001.84-1.23001.46-.31.97-.18 1.4 0 .49.21.9599.46001 1.3999.76001.19.13.6401.42001.7101.66001.1.35-.16.71999-.35 1.08999-1.18 2.19-2.08 4.06001-3.26 6.01001-.16.27-.36.57-.63.65-.17.05-.33 0-.48-.05-.80001-.3-3.25001-1.15-2.50001-2.6.93-1.79 2.03001-3.44001 2.87001-5.29001z" fill="#3d3d3d"/><path d="m11.5099 4.07998c.1-.16.22-.32997.38-.40997.18-.09.3701-.03.5301.03.68.26 1.3299.60998 1.9699.94998.1.05.3601.19.4101.31.04.07.11.20001.11.29001 0 .31-.25.57-.37.88-.11.28-.3101.51-.4401.78-.14.29-.31.57999-.47.85999-.23.42-.46.85-.67 1.29-.15.31-.32.62001-.45.94001-.06.15-.15.3-.27.39-.17.14-.34.13-.51.07-.33-.11-.64-.28-.94-.45-.45-.24999-.89998-.49999-1.35998-.74999-.16-.09-.53003-.22001-.46003-.51001.03-.16.19002-.34999.27002-.48999.11-.19.22001-.39002.32001-.58002.42-.77.80008-1.56 1.22008-2.34.23-.43.4699-.85001.7299-1.26001z" fill="#fff"/><path d="m14.15 4.07c-.04-.04-.1-.07-.15-.1-.12-.06-.25-.13001-.37-.19001-.07-.04-.17-.08-.2-.04-.02.02-.0101.05.0099.07.07.12.66.47001.76.38001.01-.03-.0099-.08-.0499-.12z" fill="#5e625e"/><path d="m13.37 3.67001c0-.03-.0299-.06002-.0599-.06002s-.0601.02001-.0901.05001c-.02.02-.0301.04001-.0301.07001 0 .05.0501.07998.0901.06998s.08-.05999.09-.10999z" fill="#5e625e"/><path d="m9.94003 10.35c-.09.02-.16998.08-.22998.16-.03.04-.06002.08-.08002.12-.05.11-.02998.23.02002.33.05.09.14999.16.23999.19.03.01.04996.02.07996.01.03 0 .06-.02.09-.04.11-.07.2-.19.23-.32.07-.23-.11-.51-.34997-.45z" fill="#ebefeb"/><path d="m27.38 16.23c-.1-.54-.2401-1.08-.5601-1.52-.36-.51-.9399-.83-1.5399-1.01-.6-.17-1.23-.21-1.85-.23-2.68-.08-5.49.16-7.77 1.58-.14.09-.28.18-.38.31-.11.13-.17.3-.23.46-.28.76-.57 1.53-.62 2.34-.04.6.04 1.21.13 1.81.12.8.25 1.59.46 2.37.36 1.36.9599 2.66 1.7099 3.85-.48-1.07-.4099-2.29-.2999-3.46.05-.6.1099-1.19.1699-1.79.06-.61.15-1.28.6-1.69.41-.39 1.0201-.46 1.5801-.47s1.1499.03 1.6599-.19l.16-.64c-.02.37.18.73.47.97s.64.37 1 .47c.39.11.7901.19 1.1901.16.39-.03.77-.17 1.16-.21s.83.02 1.08.32c.24.28.25.68.26 1.05.03 1.04.13 2.07.29 3.09.06-.11.1299-.22.1899-.32.29.29.09.76-.04 1.14-.15.42-.19.88-.13 1.32.42-1.09.84-2.18 1.13-3.32.52-2.09.5901-4.28.1801-6.39z" fill="#736357"/></svg>