<svg fill="none" height="194" viewBox="0 0 118 194" width="118" xmlns="http://www.w3.org/2000/svg"><path d="m42.53 5.55s-2.79.22002-3.03 4.08002c-.24 3.85998-.26 15.05998 4.98 15.74998s1.47-18.39997 1.47-18.39997z" fill="#1c2226"/><path d="m60.73 9.01003s2.12 5.90997-2.11 6.98997c-4.24 1.08-3.45-7.48997-3.45-7.48997z" fill="#1c2226"/><g fill="#fcc9a7"><path d="m36.63 46.13-13.11 18.48.73-1.73-6.05 27.12-6.74-1.26 4.17-27.47c.09-.6.32-1.14.64-1.6l.09-.13 13.11-18.48z"/><path d="m13.18 98.32c-3.45-1.03-5.4-4.67-4.37-8.11 1.03-3.45 4.67-5.4 8.11-4.37 3.45 1.03 5.4 4.67 4.37 8.11s-4.66 5.4-8.11 4.37z"/><path d="m65.01 45.5 8.29 25.34-4.45-3.02 27-.73.43 6.85-26.88 2.65c-2 .2-3.8-1.04-4.4-2.87l-.05-.15-8.29-25.34z"/><path d="m63.54 175.11 4.06 11.19 5.94-5.34-3.79-8.97z"/></g><path d="m65.25 183.71c0-.55.47-.91.94-.71.92.39 2.45.73 4.26-.08 1.89-.85 2.24-2.24 2.24-3.16 0-.48.34-.84.78-.78l13.83 1.99c.84.12 1.63.61 2.19 1.36.53.7.28 1.73-.46 1.95l-20.65 6.28c-.81.25-1.69-.34-1.93-1.28l-1.17-4.62c-.02-.08-.03-.16-.03-.23z" fill="#1f252a"/><path d="m9.54001 167.51-4.5 8.81 5.23999 4.48 5.66-10.57z" fill="#fcc9a7"/><path d="m4.10001 174.38c.42-.35.99999-.23 1.14999.26.3.96 1.02001 2.34 2.82001 3.2 1.87.89 3.15999.25 3.85999-.34.37-.31.87-.28 1.1.09l7.44 11.83c.45.72.59 1.63.38 2.54-.19.86-1.13 1.33-1.79.91l-18.160006-11.68c-.71-.46-.839999-1.51-.279999-2.3l2.770015-3.88c.05-.06.09998-.12.15998-.17z" fill="#1f252a"/><path d="m58.95 84.87-17.76 49.27-25.14 41.66-11.21-5.54 22.35-41.53 12.26-41.54z" fill="#092330"/><path d="m31.51 85.6s-3.36 6.35 1.86 16.5l16.21 30.93 12.35 46.88 12.27-4.28-11.74-47.41-12.69-36.99 9.19-6.35z" fill="#0c2c40"/><path d="m46.8 30.86-13.83 2.84c-1.63.33-3.07 1.27-4.04 2.62l-8.8 12.26 11.76 7.69-4.24 33.57s4.79 14.66 34.01 2.97c0 0-2.52-27.82-.83-45.94l-.86-11.93z" fill="#df945b"/><path d="m59.98 34.93 2.3.84c1.9.69 3.38 2.22 4.01 4.15l4.79 14.61-14.08 2.6z" fill="#df945b"/><path d="m104.83 68.56c0 3.6-2.92 6.52-6.52 6.52s-6.51-2.92-6.51-6.52 2.92-6.51 6.51-6.51c3.6 0 6.52 2.91 6.52 6.51z" fill="#fcc9a7"/><path d="m50.71 35.09-1.57.87c-3.05-.25-5.92-.9-5.67-3.95l.73-8.94 11.05.91-.73 8.94c-.25 3.05-.76 2.42-3.81 2.17z" fill="#fcc9a7"/><path d="m44.05 24.15s1.52 6.62 7.08 6.39c4.86-.21 4.4-7.47 4.4-7.47z" fill="#f4be9a"/><path d="m50.18 28.19-.94-.1c-4.7-.51-8.1-4.73-7.6-9.44l.58-5.36c.51-4.69999 4.73-8.1 9.44-7.6l.94.10001c4.7.51 8.1 4.72999 7.6 9.43999l-.58 5.36c-.51 4.7-4.73 8.1-9.44 7.6z" fill="#fcc9a7"/><path d="m32.7 53.93 3.56-4.2" stroke="#ce804a" stroke-linecap="round" stroke-linejoin="round" stroke-miterlimit="10" stroke-width=".7693"/><path d="m60.3 56.52.54-8.67" stroke="#ce804a" stroke-linecap="round" stroke-linejoin="round" stroke-miterlimit="10" stroke-width=".7693"/><path d="m50.71 35.09-7.02-4.24c-3-1.25-4.91 1.65-4.91 1.65l8.36 8.2z" fill="#eda472"/><path d="m50.71 35.09 3.4 5.26 3.4-6.19s-1.34-2.11-3.17-1.62z" fill="#eda472"/><path d="m69.03 68.83h42.49c.71 0 1.28-.57 1.28-1.28s-.57-1.28-1.28-1.28h-42.49c-.71 0-1.28.57-1.28 1.28 0 .7.57 1.28 1.28 1.28z" fill="#d1d1d1"/><path d="m112.8 67.22 5.08-24.68c.13-.61-.34-1.19-.97-1.19h-25.85c-.47 0-.88.33-.97.8l-5.01 25.08h27.72z" fill="#d1d1d1"/><path d="m115.01 43.23-4.74 22.39h-23.44l4.74-22.39z" fill="#efefef"/><path d="m42.78 17.37h2.87l.56-3.15s3-1.61 2.42-4.71999c0 0 12.63 4.52999 14.6-.51001 2.6-6.65-6.83-8.299986-14.6-8.109986-7.77.179996-7.21 10.099986-7.21 10.099986z" fill="#1c2226"/><path d="m44.46 16.74c-.18 1.68-1.69 2.89-3.37 2.71s-2.89-1.69-2.71-3.37 1.69-2.89 3.37-2.71 2.89 1.69 2.71 3.37z" fill="#fcc9a7"/></svg>