<svg fill="none" height="194" viewBox="0 0 132 194" width="132" xmlns="http://www.w3.org/2000/svg"><path d="m47.38 175.56 2.18 12.76 6.32.61-2.19-14.25z" fill="#fcc9a7"/><path d="m48.69 187.44c.13-.45.6-.62.94-.35.65.54 1.82 1.19 3.49.96 1.74-.23 2.36-1.29 2.59-2.03.12-.39.49-.6.82-.45l11.83 4.96c.66.3 1.18.89 1.45 1.63.26.7-.19 1.47-.85 1.48l-19.38.12c-.72 0-1.3-.68-1.26-1.51l.17-4.04c0-.07.01-.13.03-.2z" fill="#1f252a"/><path d="m21.83 116.85h-2.58v75.23h2.58z" fill="#2a272d"/><path d="m16.24 101.38 18.48 33.94 11.69 47.15h10.61l-7.57-52.4z" fill="#232322"/><path d="m31.49 115.74h-23.09999c-3.31 0-6-2.68-6-6 0-3.31 2.68-6 6-6h23.09999c3.31 0 6 2.69 6 6 0 3.32-2.69 6-6 6z" fill="#ffeee3"/><path d="m31.63 115.74h-22.20001v2.22h22.20001z" fill="#2a272d"/><path d="m31.63 173.82h-22.20001v2.22h22.20001z" fill="#2a272d"/><path d="m19.34 39.91c-4.45-.54-8.67 2.15-10.37001 6.29-1.44 3.49-2.64002 8.55-1.36002 14.42 3.90003 17.97 1.57001 30.4 1.57001 30.4h21.13002l-.08-24.47s1.46-2.85 2.25-6.58c1.11-5.22.69-5.9-2.36-10.52l-6.49-7.92c.01 0-1.44-1.28-4.29-1.62z" fill="#ffd686"/><path d="m57.77 57.25c1.41-2.82 4.83-3.96 7.65-2.55s3.96 4.83 2.55 7.65-4.83 3.96-7.65 2.55c-2.82-1.4-3.96-4.83-2.55-7.65z" fill="#fcc9a7"/><path d="m59.02 55.6-10.74 10.2 4.08 4.54 8.37-7.17z" fill="#fcc9a7"/><path d="m12.1 55.74 19.43 29.53c.75 1.13 2.29 1.4 3.38.58l23.45-18.42-4.75-8.15-18.14 13.86-12.68-23.45c-1.69-3.52-6.18-4.59-9.28-2.23-2.58 1.96-3.19 5.58-1.41 8.28z" fill="#ffd686"/><path d="m20.56 44.38c-1.23-.01-2.54-.52-3.51-1.02-.96-.49-1.56-1.5-1.55-2.58l.2-19.84 8.67.04-.2 19.59c-.01 2.25-1.63 3.82-3.61 3.81z" fill="#fcc9a7"/><path d="m24.23 35.07-3.58-5.07s-2.19 5.79 3.56 7.57z" fill="#f2c09e"/><g fill="#fcc9a7"><path d="m32.04 21.02c-.03 5.91-4.84 10.67-10.75 10.64s-10.67-4.84-10.64-10.75 4.84-10.67 10.75-10.64c5.9.03 10.66 4.84 10.64 10.75z"/><path d="m24.99 35.13c-2.8-.01-5.07-2.3-5.05-5.1l.03-7.32 12.06-1.69-.03 7.17c-.02 3.85-3.15 6.96-7.01 6.94z"/><path d="m31.71 23.41 2.32 3.45c.33.56-.1 1.25-.79 1.25l-2.71.5z"/></g><path d="m19.98 25.64 4.55-.16s.39-3.95 1.28-4.9 1.34-5.17 1.34-5.17-2.15 2.63-2.78 5.35l9.53-.24s1.42-11.55998-13.01-12.11998c-14.44-.56-14.04001 13.09998-11.20001 15.80998 2.26001 2.16 5.92001 7.46 5.92001 7.46s-.17-5.87 4.37-6.03z" fill="#4c1827"/><path d="m23.28 24.24c.06 1.69-1.26 3.1-2.94 3.16-1.69.06-3.1-1.26-3.17-2.94-.06-1.69 1.26-3.1 2.94-3.17 1.69-.06 3.1 1.26 3.17 2.95z" fill="#fcc9a7"/><path d="m14.46 6.92001c.46 3.78999-2.23 7.22999-6.00999 7.69999-3.79.46-7.23001-2.23-7.700009-6.01998-.46-3.79 2.229989-7.23001 6.019989-7.690007 3.79001-.47 7.23001 2.219997 7.69001 6.009997z" fill="#4c1827"/><path d="m15.84 42.15s.83 2.59 12.41 5l-5.38-7.32z" fill="#fcc9a7"/><path d="m20.54 188.28-15.52001 5.31h31.02001z" fill="#2a272d"/><path d="m21.71 156.47-8.49 10.21 6.1 2.32 8.52-10.81z" fill="#fcc9a7"/><path d="m13.51 165.29c.3-.35.8-.33 1 .06.38.76 1.18 1.82 2.81 2.28 1.69.48 3.54-1 4.04-1.59.26-.31.69-.36.93-.08l10.39 7.29c.48.54.72 1.29.68 2.08-.04.74-.76 1.27-1.37 1.01l-20.56-5.2c-.66-.29-.92-1.15-.55-1.89l2.14-3.34c.03-.06.07-.12.11-.17z" fill="#1f252a"/><path d="m8.57 91.02s-6.36001 14.48 16.24 22.19l15.62 14.51-24.18 32.38 10.81 3.91 29.36-31.24c2.17-2.53 2.26-6.41.21-9.05l-26.31-32.71h-21.75z" fill="#383635"/><path d="m131.55 78.23h-77.21v4.3h77.21z" fill="#ffeee3"/><path d="m73.33 193.61v-111.08" stroke="#2a272d" stroke-miterlimit="10" stroke-width="2.2811"/><path d="m111.94 193.61v-111.08" stroke="#2a272d" stroke-miterlimit="10" stroke-width="2.2811"/><path d="m102.82 75.89h-32.12v2.08h32.12z" fill="#2a272d"/><path d="m102.82 77.98 10.4-30.36-2.18-.52-10.19 29.16z" fill="#2a272d"/><path d="m30.04 83.01-15.51-23.58" stroke="#efc375" stroke-linecap="round" stroke-linejoin="round" stroke-miterlimit="10" stroke-width=".7847"/><path d="m30.98 64.51-5.92-9.36" stroke="#efc375" stroke-linecap="round" stroke-linejoin="round" stroke-miterlimit="10" stroke-width=".7847"/></svg>