<svg fill="none" height="166" viewBox="0 0 95 166" width="95" xmlns="http://www.w3.org/2000/svg"><path d="m1.67053 161.726h30.96997v-51.74h-30.96997z" fill="#b2b2b2"/><path d="m32.5179 161.726h30.97v-51.74h-30.97z" fill="#d1d1d1"/><path d="m35.3 61.06 3.73 17.86-11.65 1.5s-1.01-18.56 0-18.66c1.01-.09 7.92-.7 7.92-.7z" fill="#a8754b"/><path d="m24.4 43.12s11.64 1.64 13.73 19.35c0 0-3.71 3.99-8.44 2.76z" fill="#ffd686"/><path d="m19.35 42.51s-11.33999-1.12-15.32999 6.87c-3.9999957 7.99 7.65999 16.31 3.66 34.62l25.13999-1.33v-16.15s4.58-6.68-1.91-13.84c0 0-.39-10.88-11.56-10.17z" fill="#ffd686"/><path d="m56.75 86.59s8.15-3.02 10.34 4.89c2.19 7.9 11.27 59.55 11.27 59.55h-7.28l-4.28-20.53s-6.04-6.73-7.89-21.02l-25.4-3.03z" fill="#b5845b"/><path d="m40.09 105.49s4.32-.12 11.99-2.56c7.67-2.45 13.14.14 10.12 8.78-3.02 8.63-18.28 48.63-18.28 48.63l-5.78-1.73 4.99-25.9s1.17-12.85 6.59-20.38c0 0-11.4.57-15.3-.03-3.88-.59 5.67-6.81 5.67-6.81z" fill="#a8754b"/><path d="m7.68003 84s-9.22 11.59 1.87 22.97c0 0 5.70997 6.65 30.87997 5.61 0 0 6.6-22.28 20.64-28.27l-29.06-3.89z" fill="#0c2c40"/><path d="m19.97 12.92s3-12.209981-7.39-12.279981c-7.68996-.05-9.97997 9.139981-.55 15.289981z" fill="#190d08"/><path d="m11.68 18.15s-1.87997-4.8 3.48-7.23c5.36-2.42997 7.07 3.32 7.07 3.32z" fill="#fd6c75"/><path d="m32.04 29.07s7.74-4.58-.63-13.78c-5.23-5.74996-14.39-5.42997-19.49.27-5.09997 5.7-.29 15.75-.29 15.75l3.47-5.77 3.04-4.48 4.35-1.74 3.41.24 2.89.37 2.33.98z" fill="#27160c"/><path d="m25.7181 32.7708-8.699-1.1173-1.7607 13.7081 8.699 1.1173z" fill="#b5845b"/><path d="m16.11 35.73s.94 4.99 4.95 6c1.25.31 2.61-.05 3.37-1.08.21-.28.36-.6.41-.96.19-1.44-3.61-3.96-3.61-3.96z" fill="#a8754b"/><path d="m22.24 39.28-.45-.06c-4.99-.64-8.52-5.21-7.88-10.2l.51-3.96c.64-4.99 5.21-8.52 10.2-7.88l.45.06c4.99.64 8.52 5.21 7.88 10.2l-.51 3.96c-.64 4.99-5.21 8.52-10.2 7.88z" fill="#b5845b"/><path d="m14.89 28.03s6.26-2.04 6.1-9.07c0 0 .4-5.24-5.08-.39s-1.02 9.46-1.02 9.46z" fill="#27160c"/><path d="m16.27 29.95c-.22 1.68-1.75 2.87-3.44 2.65-1.68-.22-2.86996-1.75-2.65-3.43.22-1.68 1.75-2.87 3.44-2.65 1.68.21 2.87 1.75 2.65 3.43z" fill="#b5845b"/><path d="m18.28 24.51-.28 2.22c-.64 3.13-1.96 2.18-2.44.83z" fill="#27160c"/><path d="m33.91 23.38s-6.39 4.79-15.76-2.31c-6.46-4.89 3.31-6.65 3.31-6.65l9.11 1.88z" fill="#27160c"/><path d="m15.27 45.35s5.47 9.76 9.35 6.76c4.19-3.24-5.27-9.6-5.27-9.6z" fill="#b5845b"/><path d="m17.69 65.23s3.38 6.23 5.69 11.12l24.64-1.42s4.89-4 8.72-.62l-3.78 4.54-30.85 6.83c-1.18.26-2.41-.08-3.28-.9-2.73-2.58-8.67-8.59-11.54997-14.72z" fill="#b5845b"/><path d="m86.08 55.62h-30.28c-1 0-1.86.7-2.06 1.67l-5.7 26.75c-.28 1.31.72 2.55 2.06 2.55h30.79c1.01 0 1.88-.72 2.07-1.71l5.2-26.75c.24-1.3-.76-2.51-2.08-2.51z" fill="#b2b2b2"/><path d="m87.82 55.62h-30.28c-1 0-1.86.7-2.06 1.67l-5.7 26.75c-.28 1.31.72 2.55 2.06 2.55h30.79c1.01 0 1.88-.72 2.07-1.71l5.2-26.75c.24-1.3-.75-2.51-2.08-2.51z" fill="#d1d1d1"/><path d="m48.84 84.31h-20.69c-.63 0-1.14.51-1.14 1.14s.51 1.14 1.14 1.14h21.09z" fill="#b2b2b2"/><path d="m69.07 70.41c0 1.82 1.48 3.3 3.3 3.3s3.3-1.48 3.3-3.3-1.48-3.3-3.3-3.3-3.3 1.47-3.3 3.3z" fill="#fff"/><path d="m7.28002 45.49c-.41.18-13.98 6.85-.63 27.52 0 0 8.52998.14 13.46998-6.21.01 0-1.63-26.23-12.83998-21.31z" fill="#ffd686"/><g fill="#fd6c75"><path d="m36.57 157.48c.18-.54.77-.74 1.17-.39.78.69 2.18 1.54 4.24 1.33 2.15-.21 2.95-1.48 3.26-2.39.16-.48.62-.72 1.03-.52l13.02 6.54c.79.4 1.41 1.14 1.71 2.06.29.87-.29 1.8-1.11 1.78l-22.49-.62c-.89-.02-1.56-.89-1.49-1.9l.37-4.96c.01-.08.02-.16.05-.24z"/><path d="m69.4 148.92c.04-.57.55-.92 1.02-.68.93.46 2.5.91 4.44.17 2.01-.77 2.46-2.2 2.52-3.16.03-.5.41-.86.86-.77l14.28 2.91c.87.18 1.66.73 2.2 1.54.51.76.19 1.81-.6 2l-21.87 5.29c-.86.21-1.74-.45-1.93-1.45l-.94-4.88c-.02-.08-.02-.16-.02-.25z"/></g></svg>